<?xml version="1.0" encoding="UTF-8" standalone="no"?>
<!-- Created with Inkscape (http://www.inkscape.org/) -->

<svg
   xmlns:dc="http://purl.org/dc/elements/1.1/"
   xmlns:cc="http://creativecommons.org/ns#"
   xmlns:rdf="http://www.w3.org/1999/02/22-rdf-syntax-ns#"
   xmlns:svg="http://www.w3.org/2000/svg"
   xmlns="http://www.w3.org/2000/svg"
   xmlns:sodipodi="http://sodipodi.sourceforge.net/DTD/sodipodi-0.dtd"
   xmlns:inkscape="http://www.inkscape.org/namespaces/inkscape"
   version="1.1"
   width="245.53828"
   height="299.03729"
   id="svg2"
   inkscape:version="0.48.3.1 r9886"
   sodipodi:docname="log.svg">
  <sodipodi:namedview
     pagecolor="#ffffff"
     bordercolor="#666666"
     borderopacity="1"
     objecttolerance="10"
     gridtolerance="10"
     guidetolerance="10"
     inkscape:pageopacity="0"
     inkscape:pageshadow="2"
     inkscape:window-width="1380"
     inkscape:window-height="1021"
     id="namedview7"
     showgrid="false"
     inkscape:zoom="1.5784017"
     inkscape:cx="42.969227"
     inkscape:cy="216.0122"
     inkscape:window-x="0"
     inkscape:window-y="27"
     inkscape:window-maximized="0"
     inkscape:current-layer="svg2"
     fit-margin-top="0"
     fit-margin-left="0"
     fit-margin-right="0"
     fit-margin-bottom="0" />
  <metadata
     id="metadata8">
    <rdf:RDF>
      <cc:Work
         rdf:about="">
        <dc:format>image/svg+xml</dc:format>
        <dc:type
           rdf:resource="http://purl.org/dc/dcmitype/StillImage" />
        <dc:title></dc:title>
      </cc:Work>
    </rdf:RDF>
  </metadata>
  <defs
     id="defs6" />
  <g
     transform="translate(-238.94171,-268.10244)"
     id="g3029" />
  <path
     id="path3015-6"
     style="fill:#b3b3b3;fill-opacity:1"
     d="m 122.7752,299.03707 c 7.77884,-1.19585 17.22548,-9.96815 17.48787,-30.01859 14.99964,2.62132 28.01862,-1.64599 27.81728,-17.35154 -20.18123,-0.14728 -27.21641,-8.78977 -27.80252,-21.17276 l 50.61073,0.34068 -0.31677,-26.45102 -26.97332,0.18529 c 1.32983,-47.62346 49.2198,-39.18456 48.70151,-1.57681 51.26376,-14.4094 40.57186,-93.67109 -13.84496,-88.26146 -40.98401,3.7965 -56.79201,46.36842 -57.57249,88.98072 l -5.11831,0.76476 c 2.40815,-38.05557 15.31384,-59.25464 22.69607,-99.33013 C 167.58277,72.961547 166.72455,39.901967 122.7752,3.9647005e-4 122.7164,-0.36813353 122.87746,299.34291 122.7752,299.03707 z m -0.0121,-6e-5 c -7.77884,-1.19585 -17.22548,-9.96815 -17.48787,-30.01859 -14.999646,2.62132 -28.018622,-1.64599 -27.817281,-17.35154 20.181225,-0.14728 27.216411,-8.78977 27.802521,-21.17276 l -50.610737,0.34068 0.316776,-26.45102 26.973314,0.18529 c -1.329828,-47.62346 -49.219796,-39.18456 -48.701508,-1.57681 -51.263763,-14.4094 -40.5718574,-93.67109 13.844959,-88.26146 40.98401,3.7965 56.792016,46.36842 57.572496,88.98072 l 5.11831,0.76476 C 107.36596,166.42071 94.460269,145.22164 87.078039,105.14615 77.955558,72.961489 78.813777,39.901903 122.76313,3.3958691e-4 122.82193,-0.36819148 122.66087,299.34285 122.76313,299.03701 z"
     inkscape:connector-curvature="0"
     inkscape:export-xdpi="70.125031"
     inkscape:export-ydpi="70.125031" />
</svg>
